<svg width="32" height="32" viewBox="0 0 32 32" fill="none" xmlns="http://www.w3.org/2000/svg">
<g clip-path="url(#clip0_35_37)">
<path d="M2.64444 18.4667L12.6833 27.8389C13.1 28.2278 13.65 28.4445 14.2222 28.4445C14.7944 28.4445 15.3444 28.2278 15.7611 27.8389L15.9056 27.7056C14.8444 26.1445 14.2222 24.2556 14.2222 22.2222C14.2222 16.8222 18.6 12.4445 24 12.4445C25.5722 12.4445 27.0556 12.8167 28.3722 13.4722C28.4222 13.1111 28.4444 12.75 28.4444 12.3833V12.0611C28.4444 8.17779 25.6389 4.86668 21.8111 4.22779C19.2778 3.80557 16.7 4.63335 14.8889 6.44446L14.2222 7.11112L13.5556 6.44446C11.7444 4.63335 9.16667 3.80557 6.63333 4.22779C2.80556 4.86668 0 8.17779 0 12.0611V12.3833C0 14.6889 0.955555 16.8945 2.64444 18.4667ZM24 30.2222C26.1217 30.2222 28.1566 29.3794 29.6569 27.8791C31.1571 26.3788 32 24.344 32 22.2222C32 20.1005 31.1571 18.0657 29.6569 16.5654C28.1566 15.0651 26.1217 14.2222 24 14.2222C21.8783 14.2222 19.8434 15.0651 18.3431 16.5654C16.8429 18.0657 16 20.1005 16 22.2222C16 24.344 16.8429 26.3788 18.3431 27.8791C19.8434 29.3794 21.8783 30.2222 24 30.2222ZM24.8889 18.6667V21.3333H27.5556C28.0444 21.3333 28.4444 21.7333 28.4444 22.2222C28.4444 22.7111 28.0444 23.1111 27.5556 23.1111H24.8889V25.7778C24.8889 26.2667 24.4889 26.6667 24 26.6667C23.5111 26.6667 23.1111 26.2667 23.1111 25.7778V23.1111H20.4444C19.9556 23.1111 19.5556 22.7111 19.5556 22.2222C19.5556 21.7333 19.9556 21.3333 20.4444 21.3333H23.1111V18.6667C23.1111 18.1778 23.5111 17.7778 24 17.7778C24.4889 17.7778 24.8889 18.1778 24.8889 18.6667Z" fill="#1E1E1E"/>
</g>
<defs>
<clipPath id="clip0_35_37">
<rect width="32" height="32" fill="white"/>
</clipPath>
</defs>
</svg>
